<svg class="m-2" height="70" id="hero-play-button" preserveAspectRatio="xMinYMin" version="1.1" viewBox="0 0 70 70" width="70" xmlns="http://www.w3.org/2000/svg"> <use xlink:href="#img-play-btn-large-light-hover"></use> <g id="img-play-btn-large-light-hover"> <circle cx="35" cy="35" fill="rgba(0,0,0,.5)" r="35" xmlns="http://www.w3.org/2000/svg"></circle> <path d="M35 70A35.009 35.009 0 0 1 21.376 2.75a35.009 35.009 0 0 1 27.247 64.5A34.781 34.781 0 0 1 35 70zm0-67.2a32.209 32.209 0 0 0-12.534 61.87A32.209 32.209 0 0 0 47.534 5.33 32 32 0 0 0 35 2.8z" fill="#fff" xmlns="http://www.w3.org/2000/svg"></path> <path d="M1.506 26.116A1 1 0 0 1 0 25.254V1.746A1 1 0 0 1 1.506.884l20.025 11.754a1 1 0 0 1 0 1.725z" fill="#fff" transform="translate(27 22)" xmlns="http://www.w3.org/2000/svg"></path> </g> </svg>