<svg fill="none" height="30" viewBox="0 0 375 30" width="375" xmlns="http://www.w3.org/2000/svg"><path d="M165.151 2.68969C165.151 1.88531 165.867 1.54031 167.025 1.54031C168.163 1.54031 168.899 1.83937 168.899 2.68969C168.899 3.72094 167.741 3.83906 167.025 3.83906C165.867 3.83906 165.151 3.5175 165.151 2.68969ZM169.996 2.68969C169.996 1.10344 168.9 0 167.026 0C165.678 0 164.057 0.735937 164.057 2.68969C164.057 4.55156 165.489 5.40188 167.026 5.40188C168.584 5.40188 169.996 4.55156 169.996 2.68969ZM165.151 10.1381V9.01313C165.134 8.8967 165.14 8.77761 165.169 8.66406C165.198 8.55052 165.25 8.44524 165.32 8.35549C165.39 8.26575 165.477 8.19367 165.575 8.14424C165.673 8.09482 165.78 8.06922 165.888 8.06922C165.996 8.06922 166.103 8.09482 166.201 8.14424C166.299 8.19367 166.386 8.26575 166.456 8.35549C166.526 8.44524 166.578 8.55052 166.607 8.66406C166.636 8.77761 166.642 8.8967 166.625 9.01313V10.1381H165.151ZM167.636 10.1381V9.05719L169.932 8.09156V6.45937L167.383 7.63219C167.268 7.30294 167.063 7.02041 166.795 6.82299C166.528 6.62558 166.211 6.52284 165.888 6.52875C164.813 6.52875 164.14 7.28719 164.14 8.805V11.61H169.932V10.1381H167.636ZM166.288 13.0116C165.984 13.0033 165.681 13.0645 165.4 13.1914C165.119 13.3182 164.865 13.5079 164.654 13.7482C164.444 13.9885 164.282 14.2741 164.179 14.5867C164.076 14.8993 164.033 15.232 164.055 15.5634C164.055 17.4713 165.424 18.3909 167.024 18.3909C168.604 18.3909 169.994 17.4713 169.994 15.6094C170.016 15.2869 169.979 14.9629 169.884 14.6564C169.79 14.3499 169.64 14.0672 169.443 13.8251C169.247 13.5829 169.008 13.3861 168.741 13.2464C168.474 13.1067 168.184 13.0268 167.888 13.0116L167.802 14.4366C168.35 14.5303 168.897 14.85 168.897 15.54C168.897 16.6434 167.886 16.7587 167.085 16.7587C166.39 16.7587 165.127 16.665 165.127 15.6094C165.127 14.805 165.717 14.5519 166.37 14.5519L166.284 13.0116H166.288ZM169.911 19.8394H164.119V21.3103H169.911V19.8394ZM169.911 26.1844V27.1959L165.193 28.7128V28.7588H169.911V30H164.119V27.6778L167.595 26.5744L164.119 25.425V23.1037H169.911V24.5747H165.193V24.6206L169.911 26.1844ZM50.6972 30H28.7921C27.0862 23.1262 23.5053 8.625 23.5053 8.625H23.4417V30H14.4905V0.459375H30.0376C31.6808 7.26375 35.114 21.2869 35.114 21.2869H35.1776V0.459375H44.1502V4.9425C41.8351 7.56953 40.5687 11.0912 40.6285 14.7356C40.6285 20.5481 43.6194 27.7472 50.6963 30H50.6972ZM157.168 0.459375V30H147.774V6.87375H147.648L142.256 30H133.599L128.207 6.87375H128.081V30H111.652L110.009 23.6325H101.185L99.5416 30H83.8493C83.8493 30 83.3228 25.6556 83.1751 24.5522C82.7121 20.8959 81.7011 20.0006 79.6997 20.0006H76.9622V29.9766H60.8912C64.8356 28.929 68.6132 27.2398 72.0971 24.9656L68.7266 11.0119L59.754 13.5862L61.6729 21.4941C60.5337 22.1809 59.2655 22.5741 57.9656 22.6434C53.6898 22.6434 51.6472 17.9559 51.6472 13.9312C51.6472 7.42594 57.7131 4.9425 63.0627 4.9425C64.3056 4.9425 65.9058 5.05781 66.1377 5.08031L65.0408 0.459375H83.748C91.2209 0.459375 94.1319 4.32187 94.1319 8.45906C94.1319 14.6887 88.6767 15.8653 87.6451 16.0678C87.6236 16.0678 87.6236 16.2553 87.6451 16.2553C88.6452 16.4159 89.5982 16.8248 90.4308 17.4505C91.2634 18.0763 91.9533 18.9022 92.4475 19.8647C92.4054 19.7709 98.1552 2.09437 98.6817 0.458438H113.038L119.104 18.9872H119.19V0.459375H134.651C134.651 0.459375 138.232 16.6434 138.253 16.6434C139.432 11.2416 141.775 0.459375 141.775 0.459375H157.168ZM0.0214738 0.459375H10.426C10.426 0.459375 10.4045 20.0916 10.4045 30H0L0.0214738 0.459375ZM105.523 6.80437L102.617 16.5544H108.62L105.693 6.80437H105.523ZM77.0061 13.3566H80.0983C82.6262 13.3566 83.6793 11.9316 83.6793 10.1841C83.6793 7.95375 81.9313 7.08094 80.0983 7.08094H77.0061V13.3566Z" fill="#0077D4"></path><path d="M172 4C172 2.93913 172.421 1.92169 173.172 1.17155C173.922 0.421404 174.939 0 176 0C177.061 0 178.078 0.421404 178.828 1.17155C179.579 1.92169 180 2.93913 180 4C180 5.06087 179.579 6.07831 178.828 6.82845C178.078 7.5786 177.061 8 176 8C174.939 8 173.922 7.5786 173.172 6.82845C172.421 6.07831 172 5.06087 172 4V4ZM172.727 4C172.728 4.86774 173.073 5.69968 173.687 6.31326C174.3 6.92684 175.132 7.27195 176 7.27289C176.868 7.27195 177.7 6.92684 178.313 6.31326C178.927 5.69968 179.272 4.86774 179.273 4C179.272 3.13226 178.927 2.30032 178.313 1.68674C177.7 1.07316 176.868 0.728046 176 0.727105C175.132 0.728046 174.3 1.07316 173.687 1.68674C173.073 2.30032 172.728 3.13226 172.727 4ZM176.766 5.81782C176.719 5.68518 176.691 5.54615 176.685 5.40538C176.675 5.24538 176.659 5.09239 176.639 4.94661C176.626 4.79192 176.564 4.64551 176.461 4.52886C176.34 4.42937 176.185 4.38183 176.028 4.39648H175.228V5.81869H174.428V2.18316H176.395C176.545 2.18042 176.694 2.20788 176.833 2.264C176.959 2.31085 177.073 2.38384 177.169 2.47819C177.263 2.56836 177.336 2.67793 177.383 2.79915C177.434 2.9219 177.46 3.05367 177.459 3.18663C177.464 3.38055 177.416 3.57221 177.321 3.74132C177.22 3.90702 177.066 4.03272 176.883 4.0969V4.10666C176.973 4.12967 177.057 4.17354 177.127 4.2347C177.192 4.28986 177.245 4.35722 177.284 4.43294C177.327 4.51095 177.357 4.59517 177.373 4.68262C177.394 4.77334 177.407 4.86549 177.414 4.95822C177.414 5.016 177.421 5.08356 177.425 5.16178C177.428 5.24001 177.434 5.31916 177.44 5.40093C177.446 5.48271 177.464 5.56086 177.481 5.63553C177.5 5.70132 177.53 5.76336 177.57 5.81869L176.766 5.81782ZM175.233 3.82671H176.108C176.257 3.83803 176.404 3.7943 176.522 3.70399C176.572 3.65149 176.61 3.58884 176.634 3.52029C176.658 3.45174 176.666 3.37887 176.66 3.30664C176.666 3.23686 176.657 3.1665 176.633 3.10059C176.609 3.03467 176.571 2.97486 176.522 2.92535C176.404 2.83496 176.257 2.79123 176.108 2.80263H175.234L175.233 3.82671Z" fill="#0077D4"></path><g clip-path="url(#clip0_2264_18539)"><path d="M235.745 29.5372H229.27L222.465 7.94531H228.33L232.604 23.971H232.657L236.931 7.94531H242.796L235.745 29.5372Z" fill="#999999"></path><path d="M249.053 7.94531H254.759L262.836 29.5372H256.981L255.645 25.6376H248.167L246.81 29.5051H240.977L249.053 7.94531ZM249.417 21.4923H254.321L251.927 13.9389H251.863L249.417 21.4923Z" fill="#999999"></path><path d="M264.762 7.94531H270.531L278.01 21.2573H278.074V7.94531H283.416V29.5372H277.646L270.168 16.0863H270.104V29.5372H264.762V7.94531Z" fill="#999999"></path><path d="M304.214 12.8171H297.804V29.5372H292.152V12.8171H285.742V7.94531H304.246L304.214 12.8171Z" fill="#999999"></path><path d="M310.432 7.94531H316.148L324.204 29.5372H318.338L317.024 25.6376H309.546L308.178 29.5372H302.355L310.432 7.94531ZM310.796 21.4923H315.657L313.274 13.9389H313.21L310.796 21.4923Z" fill="#999999"></path><path d="M345.026 29.5385H341.404L341.073 27.1881C340.359 28.0951 339.441 28.8217 338.395 29.3097C337.348 29.7977 336.202 30.0334 335.048 29.9979C328.52 29.9979 324.289 25.0086 324.289 18.7479C324.289 12.4872 328.477 7.47656 335.048 7.47656C339.524 7.47656 344.3 9.86973 344.823 15.2757H339.161C338.979 13.4381 337.163 12.3163 334.887 12.3163C331.255 12.3163 329.866 15.5214 329.866 18.7266C329.866 21.9317 331.255 25.1368 334.887 25.1368C337.665 25.1368 339.545 23.8334 339.845 21.8676H335.956V17.7009H345.026V29.5385Z" fill="#999999"></path><path d="M348.961 7.94531H366.172V12.4539H354.591V16.2359H365.168V20.5949H354.591V24.7081H366.472V29.5372H348.961V7.94531Z" fill="#999999"></path><path d="M216.299 0H223.425L218.169 7.85256H210.84L216.299 0Z" fill="#0077D4"></path><path d="M223.415 29.5726L203.244 0H196.118L206.16 14.8611L196 29.5726H203.329L209.718 20.1389L216.085 29.5726H223.415Z" fill="#999999"></path><path d="M370.531 5.14276H369.548V7.85644H368.928V5.14276H367.945V4.64062H370.531V5.14276ZM372.977 6.91627L373.843 4.64062H374.74V7.84575H374.153V5.34575L373.191 7.85644H372.753L371.791 5.34575V7.85644H371.215V4.65131H372.112L372.977 6.91627Z" fill="#999999"></path></g><defs><clipPath id="clip0_2264_18539"><rect fill="white" height="30.0035" transform="translate(196)" width="178.739"></rect></clipPath></defs></svg>