<svg version="1" xmlns="http://www.w3.org/2000/svg" width="666.667" height="666.667" viewBox="0 0 500 500"><path d="M225 20.1C159.8 26.6 99 61.6 59.8 115c-33.2 45.2-49.2 103.8-43.7 159.6 6.5 66.3 40.1 125.7 93.4 165.4 82.2 61.2 195.8 61.2 278 0 33.3-24.8 60.3-59.1 75.9-96.3 11.8-28.1 17.2-52.5 18.3-83.2 2.8-77.4-32.9-150.6-95.7-196.7-45.4-33.3-104.5-49.3-161-43.7zm248.4 199.3c5.2 4.7 1.4 10.9-6.5 10.9-5 0-7.9-2.5-7.9-6.9 0-6.3 9.2-8.9 14.4-4zM47 254.5V291H20v-73h27v36.5zm58.5-14.3c3.2 12.3 6.1 23.2 6.6 24.3.4 1.1.8-8.9.8-22.3l.1-24.2h25v5c0 4.1-.6 6-3.5 10.1-12.9 18.8-5.2 46.4 15.6 55.9l4.4 2h-29.2c-26.9 0-29.2-.1-29.7-1.8-.3-.9-3.3-12.1-6.6-24.7-3.4-12.7-6.3-23.5-6.5-24-.2-.6-.4 10.6-.4 24.7L82 291H58v-73h41.7l5.8 22.2zm154.7-19c7.8 3.6 11.1 8.7 11.1 16.8 0 9.1-5 15.4-14.3 18-2.4.7-2.4.7 1.3 2.3 2 .9 4.8 2.8 6.2 4.3l2.5 2.6.8-2.3c.5-1.3 4.2-12 8.3-23.7l7.4-21.2h39l7.4 21.3c4.1 11.6 7.8 21.6 8.3 22.1.4.6.8-9 .8-21.2V218l20.7.2 20.8.3 4.6 19c2.6 10.4 4.9 18.3 5.2 17.5.3-.8 2.2-8.7 4.2-17.5s3.8-16.8 4.1-17.8c.5-1.5 2.4-1.7 21.5-1.7H441v73h-26l-.2-27.3-.3-27.2-6.9 27.2-6.9 27.3H377l-.6-2.8c-.3-1.5-3.5-14-7-27.7l-6.3-25-.1 27.7V291h-44.8l-1.8-6.8c-.9-3.7-2.2-7.3-2.7-8-.7-.9-4-1.2-12.1-1l-11 .3-2.2 7.5-2.1 7.5-21.1.3-21.2.2-.4-2.2c-.3-1.3-.9-5.6-1.5-9.6-.5-4-1.7-8.4-2.6-9.8-1.3-2.1-2.3-2.4-7.5-2.4h-6v24l-21.2-.1h-21.3l8-2.8c8.8-3.1 20.5-8.7 20.5-9.9 0-.7-7.7-30.8-8.4-32.8-.3-.8-4-.2-11.8 1.9-6.2 1.7-11.5 3.2-11.7 3.3-.2.2.6 4.2 1.8 8.8 2.7 11 2.7 11.2-1 12.5-11.1 3.9-20.4-2.5-22.9-15.7-1.4-7.6.4-13.9 5.5-18.8 5.4-5.3 11.7-7.4 23.3-8.1 5-.3 9.2-.6 9.2-.7 0 0-.7-2.5-1.4-5.4l-1.5-5.3 30.7.3 30.7.3 5.7 2.7zm206.5 12.9c.9.9 2 .9 4.4 0 4.3-1.5 4.9-1.4 4.9.8 0 1.3-1.1 2.3-3.5 3.1-1.9.6-3.5 1.8-3.5 2.6 0 .9 1.1 1.4 3.5 1.4 2.8 0 3.5.4 3.5 2 0 1.8-.7 2-8.5 2H459v-4.6c0-2.5.5-5.4 1-6.5 1.2-2.1 5-2.5 6.7-.8zm-1.7 16.5c0 .9-.7 2.2-1.7 2.9-2.8 2.1-.9 4.5 3.7 4.5 4.6 0 6.5-2.4 3.7-4.5-1.6-1.1-2.4-4.5-1.1-4.5.3 0 1.9.8 3.5 1.7 3.9 2.3 4 7 .3 9.7-3.5 2.5-9.6 2.6-12.3.2-2.9-2.6-2.8-8 .1-10s3.8-2 3.8 0zm11 17.4c0 1.8-.7 2-8.5 2s-8.5-.2-8.5-2 .7-2 8.5-2 8.5.2 8.5 2zm0 8c0 1.7-.7 2-5.2 2-5.9 0-5.1 1.4 1.4 2.5 5.6 1 4.8 3.1-1.9 5.2l-5.8 1.8 5.8.3c4.2.2 5.7.7 5.7 1.7 0 1.2-1.7 1.5-8.5 1.5H459v-3c0-1.7.5-3 1.3-3 .6-.1 2.6-.7 4.2-1.4l3-1.3-4.2-1.2c-3.8-1-4.3-1.5-4.3-4.1v-3h8.5c7.8 0 8.5.2 8.5 2z"/><path d="M463.1 221.9c-2.7 1.7-.4 4.1 3.9 4.1 2.8 0 4.3-.5 4.7-1.6.7-1.9-1.3-3.4-4.7-3.4-1.4 0-3.1.4-3.9.9zM226 242.6v7.6l6.4-.4c7.8-.5 10.6-2.5 10.6-7.5 0-5.3-2.8-7.3-10.5-7.3H226v7.6zM301.6 236c-1.7 4.3-6.6 19.6-6.6 20.7 0 1 2 1.3 7.6 1.3 6.8 0 7.5-.2 7-1.8-4.2-13-7.5-21.4-8-20.2zM462.7 237.6c-1.6 1.6-.7 4.4 1.4 4.4 1.5 0 2-.5 1.7-2.2-.3-2.2-1.9-3.3-3.1-2.2z"/></svg>