<svg id="noram" class="region" width="100vw" height="100vh" viewBox="100 80 700 500">

	<path class="country disabled"
		d="M586.5,134.1l0.8,0.5l-0.4,1.4l-1.1-0.2l-0.3-1.3L586.5,134.1z M541.5,130.5l1.1,0.2l-0.2,2.5l-1-1.2    L541.5,130.5z M522.2,117.8l-0.6-0.4l1.7-1.3l-0.1,2.4L522.2,117.8z M572.6,61.8l0.6-0.5l1.9,0.6L574,64l-1.6,0.4l-0.6-0.9    L572.6,61.8z M571.4,52.3v1l2.4-0.2l-1.7,2.6l-1.7-1.5l0.2-1.8L571.4,52.3L571.4,52.3z M562.2,46.9l4.4,3.4l-3.9-1.9l-1.6-1.7    L562.2,46.9z M480.1,95l-0.5,0.6l-1.6-0.1l1.6-0.5l1-1l1.3,0.3L480.1,95z M541.8,27.4l1.1,1.9l-0.3,1.1l-2.1,0.1l-0.2-1.7l0.3-1.4    H541.8z M527.5,18.3l-0.4,0.4l-2.6-1.1l1-0.2L527.5,18.3z M493.3,45.2l-1.1,0.5l-1.8-0.3l-0.9-1.1l0.4-0.9l0.9,0.8L493.3,45.2z     M499.6,28.6l-1.2-0.4l1.6-0.3l0.1,1.4l-1.1,0.2l-1.6-0.8L499.6,28.6z M497.5,26.4l1.6,0.4l1.1,0.4h-2.5L497.5,26.4z M592.6,176.5    l0.1,1.9l-0.9-0.5l-3,0.8l-0.9-2.4l-0.6,1.2l-1.8-0.5l0.4-0.9l-1.7-0.5l-0.8,1.2l1.1,0.4l-5.6,2.8l1-1.8l-3.3,0.2l-0.8-1.1h-2    l-0.2-2.4l-0.5,1.6l-1.1-2.1l-1.9,0.2l-1.9-0.8L567,171h-2.9l-3.1-2.3l-0.9-3.2l-1.3-2.3l2.7-2.6l-2.1-0.1l-0.1,1.9l-1.1-0.4    l0.5,3.1l-0.5,1.7l-1.9-3.2l1.1-3.3l-1.5,2.7l-0.2-1.3l-3.7-2.3l-0.3-1.3l-1.2,1l-0.3-1.2l-1.3-0.6l1.9-4.6l-0.3-0.1l-1.6,4.1    l-0.8,0.3l-1.2-2.3l0.2-2l1.6-2.3l-3.1,1.9l-1.3-0.6l3.3-4.1l-3.5,3.1l-0.4-1.3l2.1-4.3l-1.1,0.8l-1,2.9l-1.1-1.9l1-1.1l-1-1.9    l1.3-0.6l1.9,0.1l1.5-1.1l2.6-0.3l-3.5-0.2l0.2-0.9l-2.4,2.3l-0.9-1l-1.7,0.3l1.6-1.3l-0.6-1.2l2.4-0.2l0.9-0.8l-1-1.1l-0.9-2.6    l1.8,0.4l0.5-1l-1.6-1.4l-0.5,1.4l-1.7-3.3l1-1.2l-1.3-0.5l-4.1,1.4l-2.9-1l-1.4,0.5l-2.7-1.3l1.6-1.6l-0.8-1.5l-1-0.2l-1-2.3    l-2.6,1.9l-2.7-2.8l0.6-3.4l-2.1-1.1l1-0.5l-0.2-2.6l-1.5-0.6l-1.4,0.2l0.2-1.7l-3.3-3.2l0.5-0.5l-2.1-0.8l-0.1-1.7l-1.6,2.4    l1.2-2.9l-0.5-0.8l-2.4,1.2l1.5-1.3v-0.8H513l-0.5-1.4l-2.4-0.1l0.1-0.8l-2-1l0.5-0.9l-1.3-1.9l-1,0.6l-1-1.1l-1.9-0.4l-1,0.8    l-0.8-1.1l-2.5,0.4l-0.4-0.4l-2.4,0.2l-0.3,2.3l-1.5-0.5l0.4,1.1l-1.3,0.1l0.4,1.2l-1.2-0.2l0.2-1.3l-1.3,0.1l0.1,1.6l-1.4-1.1    l-0.4,1.1l2,1.1l-3.9,0.2l-0.2-0.5l-2.8-1.1l1.1-2l1.3-0.4l-0.2-0.9l-1.6,0.8l-3-0.2l-2-1.1l0.3-1.8l1.9-1l2.1-0.1l1.2-0.6    l-2.3,0.1l1.1-1.2l2.8-0.8l0.9-1l-0.8-1.4l-1.6,0.1l-0.3,1.4l-2.6,1.5l-2.1-0.4l1.1-1.3l-2,0.4l0.6-1.6l-1.9,1.4l-1.9-1l-1.6-1.4    l-0.3-3.2l1.4-1.5h1.3l-0.1-0.8l1.9-1.5v-1.7l1.3-1.3l3.1-1.3l0.4-4L483,70l-1.2,0.5l-1.1-0.5l-0.8,0.8l-1.4-2.3l0.8-2.6l-0.6-2    l1,1.7l0.6-0.8v-3.1l1-1.1l0.6-2l1.1-0.1l1.3,0.8l0.3-1.4l-1.1-1.4l0.1-1.4l-1.6-1.7l1-2.6l1.8,0.1l1,1.5l0.8-0.2l-1.3-1.6    l-1.6-0.5l0.5-1.4L488,44l2.1,1.7l1,1.7l1.2,3.2l-0.3-3.2l-0.8-1.5l2.4,0.2l2.1,0.8l-1.9-1.4l1.7-0.1l0.1-0.9l-2.3-1.1l-2.3-2.7    l2.6-0.9l0.8,0.5l4.6,0.8l2.3,1.3l0.8-1.1l-1.8-1.1l-0.2-0.6l-3.5-0.5l-2.3-1.6l-1-1.3l0.9,1.1l1.3-1.3l1.7,0.2l1.9,0.9l0.1,1.7    l0.8,0.5l-0.2-0.4l-0.1-2.6l-3.8-1.3l-0.3-0.4l3.9-2.4l1.9,1.9l-1.4-2.3l2.4,0.4l1.6,1.3l-2.1-2.5l-1.5,0.1l-5.4,2.5l-0.1,0.4    l-1.6-0.5l0.2-1.6l1.5,0.3l2.1-0.8l-2.4,0.3l-0.8-0.4l0.4-1.1l2.1-0.8h-1.6l1.6-1.6l2.9,1.1l1.4-0.8l2,1.1l-0.3-0.8l-1.6-0.9    l1.7-1.4l-1.8,0.8l1.3-2l-2,0.8l-1.3-1.7l0.5-1.5l1.2,0.1l-0.6-0.9l1.4-1.1l1.7-2.9l0.5,0.3l1.2-1.5l2.1-1.1l0.5,0.2l3.4-1.1    l0.3,1l-3.4,4.4l-1.1,2v0.9l-1.8,2.6l0.6-0.3l2.3-3.2l0.6-2.5l2.8-1.8L512,15l1.6,0.8l0.8,1.4l0.2-1l2.1-1.1h2.4l1.2,2.9l-0.9,1.8    l-4.5,6.6l0.3,0.5l-1,2.5l-0.2,1.8l1.1,1l0.6-0.4l-0.5-1.5l2.3-5.3l3.4-2.6l1.3,1.4l-0.4,2.7l1.2,1.4l-0.1-1.6l0.4-3.1l0.5-0.1    L522,21l1.1-2.3l2.6,1.6l1.6,1.8l1.6,3.3l0.8,2.4l1.3,1.4l-1-1.9l0.1-1.4l-1.7-5.4l-1-0.8l1.1-0.5l1.5,1.9l-0.2-1.6l1.4-0.4    l-1.5-1.3l-1-0.8l2.5,1l-0.5-1.8h-0.9V15l1.6-1.9l2.8-1.2l1.8,0.2l0.4,1.6l1.4,3.1l-0.8,1.6l1.7,0.9v2l-1.6,1.8l-0.8,2.3L535,26    v1.7l0.5,0.4l-0.3-1.9l2.3-0.9l0.4-1.9l2.3-0.4l0.8,1.9l-1,2l-2,0.9l1.5,0.4l-0.2,1.6l-1.4-1.6l0.9,2.3l0.9,1l1.7,0.6l0.5-1.1    l1.7,2.3l1.5-0.1l0.9,1.3l2.6,2.4l-1.7-0.4l-0.6,2l1.1,0.8L552,46l0.8-0.5l-1.5-1.4l-0.1-0.9l1.4-0.4l-0.2-1.1l1.4-0.3l2.1,1.1    l0.1,1l-1.7,0.1l-0.6,1.3l1.2-0.1l1,1.1l1.1-0.8l1.7-0.1l-0.9-0.6l1.6-0.4l1.8,1.4l1,1.6l-1.4-0.1l-2.4,1.5l0.3,3.2l-1.8-0.3    l0.4,1.5l2.4-0.5l1.6,1.5l0.6-1.4l1.5-1.1l1.1,0.2l0.1,1.6l-1.7,2.5l2.6-2.7l1.9,0.2l2.9,2.7l-0.1,1.1l-1.5-0.5l-0.4,1.1l-3-0.1    l1.8,0.6l2.4-0.1l0.8,1l1.1-0.3l0.6-0.5l0.5,1.5l-1.4,0.2l-0.6-0.8l1.5,1.7l0.6-1l2.6-1.6l1,2.3l-1.2,1.3l-1.2-0.5l-1.8,2.3    l1.3,2.5l1.2-0.8l2.1-0.6l1.1,0.3l1.6,1.6l-1.1,1.2l1.7,1.6l-1.7-0.9l-0.2,1.9l-1.7,0.9l-2.7,0.1l-1.3-1.1l1,2l-0.9,1.7l0.5,1.6    l-0.5,0.9l2.5-0.9l0.6,1.4l-1.1,3.2l1.6-2.8l0.1-1.4l0.8,1.3l1.6,0.4v1.8l0.6-1.4l5.9-0.8l0.2,1.9l1.6-2.1v1.7l1.8,1.4l-0.9-1.4    l0.5-0.6l1.1,1.2l4.4,2.8l0.1,1.6l-1.1,0.5l-2.1-1.8l1.8,2.4l-1.1,1.3l-1.8,0.2l-3-1.7l-1.6-0.2l-1,0.5h-2.6l-1.3,1.6l-4-0.4    l-0.8,1.1l2.9-0.6v1.1l1.9-1.3l1.6-1.6h1l0.9,1.4l-0.8,3.3l-2.8,2.5l1.3-0.4l1,2.3l1.1,0.9l1.9-3.1l1.2-0.2l-0.9,1.4l-0.4,2.8    l1.6-0.5l-0.6-2l1.2-0.5l0.5-2.9l4.4-1.6l1.9-2.3l0.8,0.8l-0.8,0.9l1.1,2.3l-0.8,2l0.4,2.3v5.9l-0.9,0.8v1.7l-1.6,1.4l-0.3,2.7    l-0.9,0.2l0.5,1.4l-1.2,0.1l0.5,1l-1.6,2.6l-1.6,0.9l-3.8-1.4l3.4,2.3l-0.1,4.7l1.3,2l-0.3,2.3l1.1,0.6l0.3,3.8l-0.6,1.7l-0.6,4.2    l-1.1-1.4l1,4.2l-1.4-1l-2.4-0.4v-2.6l-1.2,1.9l1.2,1.5v2.4l-2.3,3.2l1.3,1.3l-0.1,2.3l-1.4-0.1l-0.8,1l0.9,1.3l1.5-0.8l1.7,3.2    l2.6,2.8l0.2,1.6l-1,0.5l1.3,1.6l-0.9,0.5l1,1.8l-0.2,2.3L586,161l1.4,0.1l1.3-0.9l1.9,3.9l1.2,0.3l-1,1l1.6,1.4l0.4,1.5l-1.6,1    l1.2,0.2l1.9,2.3l-1.1,1.8l2.1,1.6l-2.7,1v0.1l2.7-1.1l-0.6,0.9l-0.3,2L592.6,176.5z M533.6,124.5l0.2-1.2l-1.9,0.5l1.1,1.1    L533.6,124.5z M549.7,35.8l0.1,0.2l0,0l0,0L549.7,35.8L549.7,35.8L549.7,35.8z M549.7,35.8l-2.4-2.6l-0.5-1.1l1.2,0.5l0.1,1.2    L549.7,35.8L549.7,35.8L549.7,35.8z M585.4,90.8l-2,3l-0.9-1.3v-1.4h-0.9l1.6-2l0.5-2.6l2.9,1.5L585.4,90.8z M575.6,74.7l1.5-2.5    l2.8-1.4l1.2,1.2l-1.1,1.2l-1.7-0.1l-2.1,2L575.6,74.7z M536.1,137.3l1.8-1l-1.5-0.2l-1.9,0.8l-1-0.4l-0.3-1.9l-1.2-2.7l3.7-0.5    l2,1.1l2-0.1l1,0.9l-0.1,1.3l-2.3,3.2L536.1,137.3z M583.8,75.4l-5.3,1.1l-1.9-1l0.5-1.2l1.4-1.1l1.7,0.2l1.9-0.5l0.5,0.4    l-1.5,1.1l1.9-0.3L583.8,75.4z M576.3,71.5l-3.1,2.3l4.1-2l-1.8,2.8l-2.7,1.2l-0.5-1.9l1.1-1.3L576.3,71.5z M549.8,36l0.3,0.3    l-0.2,0.5l1.1,1.7l2,1.4l-1.6-0.2l-1-1.1l-0.5-1.8L549.8,36L549.8,36z">
	</path>
	<path class="country disabled" d="M657.1,468.9l-1.1-0.2v-2.1l0.4,0.1L657.1,468.9z"></path>
	<path class="country disabled" d="M563.6,467.8L563.6,467.8l0.1,0.1L563.6,467.8L563.6,467.8z"></path>
	<path id="usa" class="country disabled"
		d="M470.4,302.8l-2.7,2.1l-0.1-1.5l1.5-0.9L470.4,302.8z M202.2,162.5l-0.4,1.3l-3.2-0.3l-2.1-0.8l4.4-0.8    L202.2,162.5z M219.4,172.1l-0.2-2.6l-1.3,0.1l-1.3-1.4l-1.5,0.1l-1.2-1.1l0.4-1.1l2.4-0.2l3.2,1.7l-0.6,1.7L219.4,172.1z     M229.5,174.3l-1.5,0.5l-0.8-0.6l0.8-1.1L229.5,174.3z M314.5,224l0.2-2l0.6,2.4l-1.9,1.1l-1.3-3.5l0.6-0.4L314.5,224z     M262.3,175.9l1,1.6l-1,1.3l-3-1.1l-0.8-1.3l1.6-0.4l1,0.8L262.3,175.9z M282.7,176.8l1.3,0.5l-2.8,1h-1.7L282.7,176.8z     M237.7,137.6l0.5,1.4l-1.4,1.9l-2.8-2l-0.2-3.4L237.7,137.6z M543.2,328l1.2-0.2l-4.5,3.8l-4,1.7v-1.4l1.6-1.4l3.8-1.3L543.2,328    z M209.2,165.5l1.4,1l-4.3-0.8l0.6,1l-4.6-1.6l1.5,0.2l2.5-1.7L209.2,165.5z M310.8,215.6l-1.7,0.3l1.5-1.9v-1.5l1-3.2l1.8,0.8    l0.1,2.4l-1.5,2.8L310.8,215.6z M330.8,278.1l-0.2,0.1V278L330.8,278.1z M526.3,308L526.3,308L526.3,308L526.3,308L526.3,308    l13.1-3.7l0.2-1.8l1.8-0.2l1.2-3.4l-0.1-6.1l1.6-5.3l1.9,1.1l2.5-1.8l2.1,1.3l2.5,7.4l1,0.6l0.9-0.2l0.5,1.9l1.4,0.2l1.6,1.6    l-0.9,1.3l-2.6,1.5l-1.4,2.5l-2.9-0.2l0.3,2.3l-1.2,0.4l-1.3,2.8l-0.8-0.8l-1.6,4.2L546,316l0.9,1.4l-0.9,2.4l1.5,0.1l1.5,2    l2.8,0.1l-3.3,2.4l-2.7,0.8l-2.1,2l-3.9,1.1l-2.9,2.4l-2,3.7l1.6,0.6l0.3,3.7l-2.4,5.5l-3.8-2.4l1.2,2.4l1.7,1.2l0.6,2l-2.4,7.4    l-0.5-1.3l0.9-2.6l-1.3-1.4l-2.6-0.9l1.3-0.9l-1.6-0.9l0.8-0.9l-1.1-1.4l0.9-3l-1.5,1.6l-0.3,3.2l2,4.2l-2.6-0.2l3.2,1.4v1.7    L526,352l3.9,2.4L529,355l1.2,1.9l1.6,0.2l2.1,4.7l-1.4-0.2l-2.9,2l4.1-1.3l0.9,0.8l-1.1,3l-2.6-0.1l0.5,2.1l-1.6,1.3l3-0.2    l-1.2,1.6l-2.4,0.5l-2.1,2.4l-0.9,3.4h-2.1l-1.7,1.3l-1.4,4l-7.3,8.3l-1.7,3.5l-0.3,2.3l1.2,5.4l1.4,3.2l2.4,3.8l2.8,3.2l0.5,2.7    l3.5,6l0.9,6.6l-0.8,5l-3.7,0.8l-1.6-3.4l-2.7-1l-1.1-2.9l-1.4,0.2l-0.2-2.8l-1.4,0.4l-2.5-3.3l1.1-2.5l-2.4,0.3l0.1-6.8l-2.4-1.5    l-4.2-4.1l-1.9-0.9l-1.8,0.8l-2.7,2.9l-4.1-2.6l-4.6-1.3l-5.9,1.6l-3.4,0.4l-2.9-0.8l-4.4,1.7l-2.8-1.1l-1.1,1.6l2.1,0.5l2-0.9    l1.7,1.3l-1.8,1.4l1,1.8l2.8,1l-0.5,1.1l-5.2-2.5l-0.5,2.7l-1.5-1.3l-2,1.2l-2.5-0.9l-2.9-3.1l-1.3,1.4l1.4,0.8l-4.5-0.5l-2.8-1    l-4.5,0.6l-2.9,1.6l-0.2-1.8l-1.7,1.3l1.6,1.3l-4.6,3.5l-1.9,0.4l-5.4,4.4l-2.6,4.6l1.3,7.8l-1.6,0.8l-2-1.3l-2.4-0.2l-5.2-3.2    V429l-1.4-0.8l-0.1-3.2l-1.1-0.5l-3-4.1l-1.8-5.2l-1.8-2.3l-1.1-1.2h-0.3l-0.5-0.9l-4.8-1.1l-1.9,0.8l-2.8,4.5l-4.6-2.6l-2.4-2.3    l-0.5-3.3l-1.4-3.1l-1.7-1.3l-5.4-6.3l-8.7-1.1l-0.4,2.7l-14.3-2.3l-17.9-10.8l0.8-1.1l-12.1-1.7l-0.8-5.3l-2.6-3.4l-1.2-0.1    l-0.2-2l-1.3-0.1l-3.3-3.5l-4.1-1.4l-0.5-1.1l1-3.2l-2.1-4l-1.6-6.2l1.3-1.1l-2.1-3.2l0.5-3.5l1.6,2.6l-1-4.5l-0.6,1.6l-1.3-1.7    l-0.2-2.8l-1.8-3.5l1.2-5.4l-1.4-3.2l0.1-1.1l2.4-3l1-2.1l0.4-3.5l-0.3-2.1l0.5-3.1l3.7-5.4l2.1-5.3l2-4.1l0.9-4.8l1.4-2l-0.6-1.1    l0.5-5.4l-0.3-2.9l1-1l1.6,1.8l4.9,1.8l0.5,1.6l-0.9,1.7l0.5,1.5l-1.8-0.5l-1.3,1.3l1.5,0.4l1.7-1.2l1-3.2l-1.1-2.3l0.8-2.4    l1.1-0.1l-0.5-1.8l108,16.4v-2.4l1.3,0.4l0.5,3l3.9,1.6l1.9-0.8l2.5,0.5l1.1,1.8l1.3-0.8l2.6,1.7l1.9-1.3l0.5,0.8l2.5-0.2l2.5,0.5    l-5.6,3.4l-4.2,4.4l0.5,0.8l4.9-1.7v1.4l1.4,0.8l2.6-1.7l1.6-0.3l3-2.6l1,1.5l3.3,0.6l1.4,1.7l3.1-0.1l1.7-1.5l4.8-1.2l-0.2,1.6    l2.4,0.1l1.5-0.6l0.2,1.1l-0.5,1l3.1,1.3l-4.6-0.1l-0.1,1.3l-3.4-1.1l-0.4,0.8l-3.8,1.1l-1.6,1.3l-0.1-1.2l-3.5,8.6l2.3-2.1    l1.6-2.7l-1.1,3.2l-1.2,5.4l-0.4,4.1l0.9,2.7l0.1,3.2l1.4,2.9l1.4,0.8l2.7-1.7l1-2.4l0.2-4.4l-1.8-3.9l-0.2-2.8l0.9-1.9l-0.2-1.9    l2.3-3.3l0.1,2l0.9-2.4l1.6-1.2l-0.5-1.4l1.2-1.3l5.6,1.9l1.1,1.6l0.5,4.4l-1.9,2.4l0.1,1.9l1.1,0.3l1.6-2.6l2.4,0.1l2,5.2v2.3    l-0.5,0.6l-0.9-0.4l-0.8,2.3l-0.1,0.2l-1.2,3.4l4.5,1.3l3.5-1.3l1.2-1.5l4-2.6l4.7-4.3l1-1.8l-0.4-0.5l-0.8-0.9V323l-0.1-0.5    l3.9-1.5l2.7,0.2l3.4-1.3l1.8-2l-1.4-3.1l1.8-2.7l1.6-2.7L526.3,308z M302.4,189.6l1.5-0.2l1.5,0.8l-1.1,1.4l2,7.2l-0.4,2.1    l1.5-0.1l0,0l0,0l-0.3,0.8l1.1,0.9l0.5,2.7l-0.5,1l-2-0.2l-1.7-3.8l-0.4-3.5l-3.1-5l1.6-0.3l0.1-1.2l-2.6-0.1l-3.1-3.8l-2.5-2.6    l-3.4-1.2l-1.7-3.4l-2.5-2.9l-2.1,0.4l0.6-1.3l2.5,0.5v-1.2l-1.2-0.3l0.1-2l-1.3-1.1l-2.3-0.2l0.5-2l-1.5,1.7l-0.3,1.9l-1.7,0.9    l0.5,1.3l-2-0.1l-1.8-1.7l-1.6-0.1l-4.8,1l-3.9-1.5l0.4-1.1l2,0.2l2.4-0.6l-1.7-0.2l-0.5-1.6l2.6-1.3l1.8-1.5l0.3-1.2l3.7,0.2    l0.5,1.3l1.4,0.4l-1.2-3.2l-3.7-0.3l-5.6,1.9l-1.5,1.4l-2.6,0.2l0.2-1.1l-1.9,1.1l-1.4-0.4l-1.5,1.6l1.4,0.8l0.2,2l-3.3,0.1    l-3.2,1.3l-1.2-0.9l-3.7,0.8l-0.6-0.8l-3.8,1.7l-0.4-0.8l-2.1,0.3l-1.2-0.5l-4-0.4l0.5,1.1l-2.5,0.4l-3-1.1l-0.5-1.2l-3.9-0.2    l-2-0.9l0.2-2l-2.9,1.4l-1.5-0.2l0.6-2.1l-2,1.2v-1.4l-1.9,0.5l2.9-2.1l-0.5,1.5l5.9-0.4l2.3,1.6l1.6,2.5l-0.2-1.6l1.7-0.8h2.8    l3.2,0.6l0.4,1.1l1-1.3l2.1-0.5l2.7,0.2l4.1-4l2.1-0.3l0.6-0.8l-3.9-1.1l-0.1-1.9l1.3-1l-2.3,0.5l-0.6,1.6l-1.1-0.2l0.8-3.5h-1.4    l0.2-2.5l-4,0.9l-0.2-1.2l-2-1.7l1.6,0.5l1.5-3.2l1.7-0.3l1.3-4.2l-1,0.1l-3.3-1.6l-1-1.3l0.8-0.9v-2.6l-0.5-2.9l2.9,0.5l1.4,1.8    l-0.1,1.5l1.2-0.2l-0.8-1.7l-2.4-2.9l0.8-5.4l2.6-1.6l0.3,0.5l3-0.8l1.8,0.2l0.9-1.3l1.9-0.8l1.5,0.3l0.6,2.8l4.4,0.5l2.5,1.7    l1.9-0.4l1.8-2.8l-0.1-1.8l2.3,0.2l0.5-2.1l-1.3,0.2l-1.6-1.1l-3.5-0.5l-0.1-1.6l-1.7-1.7l-1.9-0.8l-1.6-3.1l1.1-1.8l0.1-2.4    l0.8,0.9l1.5,0.1l-1.8-3.1l-0.3-2.3l1.2-0.3l2.1,1.1l1.5-0.2l4.4,1.1l2.4,1l1.6,1.4l-2.1,1.6l-0.1,1.1l2.9,2.9l0.1,1.1l1.9-0.8    l1.1,1.2l-0.6-2.9l0.4-3.5l1,0.3l-1,1.9v1.9l1.2,0.3v1.6l1.2,0.9l0.6-0.5l-0.6-1.9l-1.8-0.4v-1.6l1.6-1.7l-1.5-0.8l-1.8-2.9    l1.6-3.4l-0.2-4.6l-0.5-3.5l1.6-0.4l1.6-1.5l3.7,3.2l2.1,0.3l2.3-0.5l1.2-1.4l3.3-1.3l0.1,0.5l2.1-0.8l-0.1,0.8l2,0.9l4.3-0.4    l3,2.4l2.6-0.1l1.8-0.6l1.6,2.5l-1.7,0.5l0.3,1.4l1.9-1l0.5,1.6l-0.9,1l0.8,0.9l2.1,0.4l1.5,2.1l-1.9,1l1.7,1.3l-1,0.3l5.2,3.1    l1.9,2.9l1.3,2.6l2.6,1.6l0.5,1.8l1.4,1.1l3.1,0.9l2,3.8l0.2,1.6l0.9,0.4L300,187.9L302.4,189.6z M316.7,226.7l-1.5-0.2l-1.6,1.9    l0.4-1.9l1.6-2.1l-1-3.1l0.2-0.9l-1.1-3.4l-1-0.5l1.3-1l-0.4-5.8l-1.3-0.9l0.6-7l-1,1.9l-0.6,3.9l-2.5-1.4l0.9-3.1l-0.6,0.5    l-1.4-2.8l0,0l1.4-0.1l2-2.1l3.1,0.1l0.6,2.1l-0.5,0.5l1.1,3.1l1.3,5.3l0.6,9.9l-0.6,0.9l1,2.3l3.5,4.9L321,229l-0.9,0.8l-0.5,2.9    l-2.1,1.7l-2-0.1l0.5-2.5l1-0.5l0.9-2.3l-0.4-1.9h-0.3l0.4,1.8l-0.8,1.9l-1.7,0.1l-0.8,2.4l-0.5-1.3l0.5-1.9l1.3-2.8L316.7,226.7z     M311.1,218.5l0.5-2l2.4,2.3l-0.6,1.9l0.9-0.9l0.4,1.5l-1.1,0.2l-0.9-2.8l0.1,2.1l-2.1-0.4l0.3-1.6l-2.4,2.6l-0.8,1.5l1.5-5.7    L311.1,218.5z M307.2,211.9l-0.9-0.1l0.3-1.4l-0.5-2.3l-0.2-1l3-0.2l1.9,2.8l-1.1,3.2l-0.8-0.2l-1.4-2.8L307.2,211.9l1-0.2    l0.9,1.9l-0.8,3.9l-1.6,3.1l-0.4-4.7l1.2-1l-0.6-1.6l-0.9,1.2l0.2-2.1L307.2,211.9z M307.4,200.7l0.1-0.2l0.1,0.2l0,0H307.4    L307.4,200.7L307.4,200.7z M309.5,229.7l0.9-1.3l-1-0.4l-0.6,3.7l-0.2-2.9l0.5-2.6l-1.4,1.3V226h1.1l1.8-1.7l0.4-1.6l-0.4,0.8    l-2.3-0.3l2.3-0.5l-0.1-1.5l1.3,0.8l-0.3,1.7l1,0.9l0.2,5l-0.8,3l-0.9,0.2l-0.1-2.9L309.5,229.7z M251,182.4l2.9-2l-1-0.4    l-1.2,0.9l-0.4-1.1l1.2-2.6l2.3-0.1l0.4,0.8l2.8-0.8l1.5,1.5l1.1,0.6l-1.6,3l-1.4-1.7v1.7l-1.2-1.1l-4.4,1.1l-1,1.3l-1.8-1.7    L251,182.4z M240.7,112.3l0.2-1.7l1.6-1l0.2,2.1l2.1,1.6l-0.6,1.4l0.4,1.7l1.4,2l-0.9,0.4l-0.9-1.2l-2-0.1l0.6-1.1l-0.4-2.9    L240.7,112.3z">
	</path>
	<path class="country disabled" d="M625.1,453l1-0.3l-1.6,1.1l-0.2-0.4L625.1,453z"></path>
	<path id="ca" class="country disabled"
		d="M306.2,240.9l-1.1-1.1l1.1-0.5l-1.1-1.3l0.2-2.5l1.2-1.5l2.1,1.5l0,1.4l0.3-0.5l1.9-0.1l-1.6,1.8l-1.2,2.4    l-1.2,0.4l1.4,0.3l0.1,1.5l-1.6,1.4l1.3,0.4l-0.5,1.3l0.9,3.1l-0.8,0.2l-1.7-7.3l-0.4-1.4L306.2,240.9z M308.6,236.9l-0.2,0.2l0,0    l0,0l-1.6,0.4l1,0.8l0.6-1.2l0,0l0,0l0.2,0L308.6,236.9z M302.4,189.3L300,187l31.3-54.8l2.3,1.6l1.3,1.6l1.1,3.5l2.4,3.4l1.4,0.5    l0.9,2.1l-0.1-3.4l1.1-1.2l2.9-0.2l0.5,0.8l1.2-1.6l0.5,2l-1.8,1.1l2.8,0.1l1.5-1.4l2.7,0.3l1.5-0.9l0.1,1.1l2.1-1.6l1.9,2l-4.2,1    l-2.4-0.2l-0.8,1.1l-1.4-0.1l-3,2l1.4,1.1l0.4-1.9l2.9-0.4l1.1-1.1l1,2l2.6-2.3l3.2,0.1l-0.1,1.3l2.4-1.4l1.4-1.8l0.4-2.6l1.5,3.7    l-0.2,3.7l1,3l1,1.1l0.3-1.4l1.6-1.3l0.6-1.8l1.7-0.4l-1.2,2.9l1,0.2l-1.6,2.1l1.7,0.6l1.5-0.5l1.3-2.1l3.4,1.6l2,3.2l3.5,2.4    l1.1,1.7l4.7,2.8l0.3-1.3l2,1.4l2.1,3.9l-0.5,1l-2.4-0.8l-0.8,1.7l-1.2,0.2l0.9,1.2l6.8,2.4l0.3-0.4l3.3,0.4l2.8-1.6l0.5,2.6    l1.7,0.2l0.2,2.6l0.4-1.6l1.6,2.4l0,1.6l-0.9,1.3l1.3,2l-0.2-3l0.9,1.6l0.1-4.7l-0.9-1.5l0.6-2.8l2.9,0.3l1.1-1.6l1.8-0.2l0.4-1.6    l-2.3,0.5l-1.8,1.6l-1-0.8l-0.4,1.3L405,169l-1.1-1l1.7-2.3l2.6-0.2l2.7-1.1l1.8,1.6l-0.3,2l1,1.2l1.3-2l-0.8,2.4l1,1.5l2.5,0    l3,2.7l2,0.4l2.1-1l3.3,0.5l0.5,0.5l2.3-0.5l-1.8-1.8l1.3-0.2l1.2,2.4l2.6-0.1l-1.5-1.7l-1,0.6l-1.6-3.2l2.5,0.1l-0.1-1.2l1.8,0.5    l0.4,1.4l1.5,0.3l-0.9,1.4l2.4-1.9l-1.5,5.7l1.9,0.6l1.2,3.2l0.3-2.7l-1.4-2.9l0.6-2.6l1.5,0.3l2.8-4.2l0.3-1.7l-0.9-1l-0.4,1.7    l-1.4,0.1l0.1-1.5l1.1-0.8l-0.3-1.9l1.6-1.4l-1.8,0.5l-0.8-1.7l-0.5,0.9l-3.3-2l-0.9-3.2l1-2.3l-1.1-1.5l0.4-3.4l1.1-0.9l0.8,0.9    l0.4-1.4l-1.1-0.5l1.6-2.9l1.3-0.4l-1.1,0.2l-0.2-4.2l-1.1-2.4l0.2-2.5l-0.3-3.7l1.1-0.9l0-1.9l3.3-1.3l1.8,0.2l1.2,1.1l1.4-0.4    l2.9,0.9l-2.1,5.4l-0.9,2.8l-1.1,1.1l-2.3-0.5l-1.6,0.2l1.6,2.3l-1.4,3.2l-1,0.2l0.4,2.5l0.4-1l2.9,3.1l0.2,3.9l1.3,1.1l1.2,2.9    l-1.3,1.4l1.4,0.3l-2.1,2.4l1.5,0.2l1.2,1.2l0.5-2.6l0.5,2l2.9,0.5l-0.2,1.6l-2-0.3l2.1,2.9l-0.2,3.1l1,1.3l1.2-2.9l-0.1-2.9    l0.8-1.4l1,0l2.6,2.8l1,3.3l-1.6,0.4l0.8,3.5l2.7,3.4l2.1-1.2l-0.3-2.1l1.4-2.8l0-4.7l2.1-0.3l-1-0.5l1.4-1.5l-2.1-1l-0.9-3.2    l0.4-1.4l2.4-0.4l1.7,0.9l2.5-0.1l1.7,2.5l2.4,1.1l-1.1,1.5l1.6,0.8l0,1l-1.6,1.7l-1.2-0.2l0.6,2l0.9,0.2l0.1,1.6l2.7,2.7    l-0.2,3.2l-1.1,0.3l-1.4,3.1l-1.5,1.7l-3.5-3.2l2.5,4.5l-2.7-0.8l0.9,1l-2.5-0.4l-0.6-1.8l-2.4,0.4l-1.2,1l2.7,1.5l-1.3,1.9l0,1.2    l-2.3,3.1l-1.5,0.1l-5.2-3.8l-3.9,0.4l3.1,0.8l2.8,3l5.6,0.1l0.3,0.6l-2.5,6.7l-2.9,1.9l-2.3-1.8l0,1.9l-1.1,2.4l-1-0.3l-0.3,1.6    l-1.4-1.3l-1.9-0.4l1.4,1.4l1.7,0.4l0.5,2.3l-2,1.9l-2.4-0.4l-1,0.5l1.5,1.6l-2.1,0.5l-1,1.9l0.1,2.3l-2.8,2.6l0.5,0.9l-1.5,3.1    l-1.4,5.9l0.4,3.9l-0.2,2l1.2,1.9l0.8-0.5l3.4,0.3l2.7,8.8l-0.9,2.6l5.6-2.3l1.5,0.1l2.7,1.4l3.3,0.4l3.3,2.4l1.6,2.4l6.9,2.1    l1.1,1l3,0.8l2.3-0.9l6,0.5l0.5,1.7l-0.2,3.9l1.5,2.4l0.5,3.3l-0.4,1.9l3.2,2.7l1.1,2l3.2,1.9l1.1,2l2.8,0.9l-0.1-1.6l1.1-1.9    l2,2.3l-0.6-4.4l0.9-1.1l-3.4-8.3l-0.1-3.1l-1.6-0.9l-1.9-2.6l4.4-3.2l3.3-4.3l1.3-3.2l0.1-1.6l-1.1-5l-1.7-3.3l-3.3-3.1l-1.2-0.1    l-1.8-1.6l-0.8-1.6l1.8-3l-0.4-2.5l1.4-1.1l-0.1-1.3l-2.1-2.3l0-2.3l-2-0.1l1-1.9l-0.4-2.3l0.6-0.4l-2.1-2.3l-0.8-2.6l1.1-1.4    l-1.3-0.4l3.3-0.4l7.1,1l2.1-2.7l4.2,1.3l1.9,1.2l0,1l1.7,0.1l-0.3,1.6l2,1.4l2.9-0.1l1.9,0.8l0.8-1.9l1.1,1.6l-0.9,2.1l1.3,1.6    l1.6,5.7l1.3,2.4l-1.3,1.2l0.8,1.1l1.1-2.4l3-0.2l1.1,1.3l2.3,0.1l0.1,1.8l2.4-3.5l0.2-2.3l1,0.1l1.2-3.9l-1.5-2.6l0.9-2l-0.4-3.3    l1.4,0l0.5,1.9l1.2,0.2l0.6,1.8l1.1,0.1l5.3,4.4l-0.9,1.7l2-1.1l1.2,1.8l2.8,2.7l1.3,0.1l-0.6,2l2.4-0.1l1.2,2.9l-2-0.4l0.3,1.2    l2.7,0l-1.7,2.4l2.8-0.9l1,1.8l2.6-0.4l1.3,1.7l-0.5,3l2.1-3.1l0.4,1.3l2.4-1.4l1.1,1.6l3.8-1l2.6,0.4l-2.7,2.3l-0.5,2.4l-2.3,2.6    l-1.8,1.3l0.4,3.1l1-1.9l2.3-2.6l0-1.6l2-2l-0.6-0.5l2.7-0.9l2.1,1.9l5.2-0.8l1,1.8l-0.6,1.3l2,1.5l-1.3,1.4l2.1-0.4l0.8,1.9    l-2.1,4.2l-0.4,1.7l-2.7,0.9l-1.6,1.7l-1.6,2.9l0.5,1l-2.7,5.4l-2.6,0.9l-2.8,2.3l-0.9-0.4l-7.2,2.2l-5.3,2l-2.7,1.9l-1.4,0    l-1.7,3.4l0,3.1l-2.5,1.1l-2.8,4.4l-1.4,4.5l-0.9,4.2l-3,5.7l2.7-2.4l3.8-9l2.5-3.4l5-4.9l3.7-2.3l4.1-0.4l2.1,1.4l0,2.3l-3.2,3.9    l-2.3-0.5l-2.1,1.5l3.1,0.2l1.2,1.1l1.3-1.4l2.1-0.5l-0.5,4.1l4.4,4.6l3.1-0.4l-1.1,1l7.3-0.1l1.5-2.4l0.5,1l1.7-0.5l0.6,0.3    l-1.7-2.3l1.3-7.1l0.9-0.3l1.1,2.3l-0.3,5.2l1.1,0.6l0.5-2.3l-1.4,0.9l1.1-2.9l2.7,1l-1.5,3.1l-1.8,1.7l-1.5,0.2l1.7,0.9l-2.4,2    l-1,1.7l-3.3,3.2l-2,1l0.5,1l-3.2,0.6l0.5,1.6l-1.1,3.4l-2.9,3.1l-1.4-1.4l-0.6,0.8l-1.1-1.7l-0.1-3.2l3.3-4.8l1.6-1.9l0.4,1.3    l2.5-2.8l-5.3,1.8l1.1-2.4l-4.6,5l-3.1,2l1.2,2.4l-1-0.1l-0.4-2.5l-1.7,0.1l-1.4-0.2l-0.5-1.9l-1.1,0l-0.6-0.4l-2.4-7.4l-2.1-1.3    l-2.5,1.8l-1.9-1.1l-1.6,5.3l0,6.1l-1.2,3.4l-1.8,0.2l-0.2,1.8l-13.1,3.6l0,0l0,0l-2.1,1.4l-1.6,2.7l-3.2,2.4l-1.3,1.9l-2.5,0.1    l-6,2.5l-2.4,3.5l3.1-0.2l0.1,0.5l0,0.4l0.8,0.8l0,0.1l-5.3,1.9l-1.1,1.5l-3.9,0.2l-1.7,2.6l-3.2,1.9l-2.1,0.2l0-1.2l0-0.2l0.1,0    l2.7-0.5l-1.1-1.3l0.5-0.6l0-2.3l2.7-2.7l-0.8-4.1l1.4-3.5l-0.6-2.1l-1.7-1.5l1.6-0.2l0.4,1.5l5.4,2.3l1.3-2.3l-3.2-3.1l-2.3-2.9    l-3.9-0.5l-5.7,0.5l-4.7-0.3l-0.2-1.1l-1.5,0.6l-0.5-2.5l-1.1-0.5l0.5-1.9l-2-1.7l0.1-2.3l-3.3,0.5l-1.5-1.1l-1.8-3.5l-3.4,0.4    l-4-1l2.7,1.2l-2.8,0.6l-0.6-1l-0.8,2.9l-0.4-1.1l-1.5,1l-1.3,2.8l-2.5-0.5l-2.5,0.2l-0.5-0.8l-1.9,1.3l-2.6-1.7l-1.3,0.8    l-1.1-1.8l-2.5-0.5l-1.9,0.8l-3.9-1.6l-0.5-3l-1.3-0.4l0,2.4l-108.5-16.2l-0.5-0.8l-0.5,0.4l-0.2-0.1l0.5-3.8l-1.5,0.9l-1.5-2    l1.1-1.1l-3.1-0.4l1.2-2.8l-1.9,0.8l0.9-1.6l-1.1-1.9l-1.2,0.2l-3.4-1.7l1.4-1.3l-1.4-1.4l-0.9,0.4l-1.8-3.4l2-5.6l-0.3-2.1    l0.8-2.5l-2,2.9l1.1-4.7l-1.5-1.8l0.5-1.8l1.3-0.1l1.5-1.5l-2.9,1.5l-1,1.2l-1.5-6.8l0.8-2.5l3.2-2.5l1.3-3.8l0.2-1.3l-3.5-4.9    l-1-2.3l0.6-0.9l-0.5-9.9l-1.3-5.3l-1.1-3.1l0.5-0.5l-0.6-2.1l-3.1-0.1l-2,2.1l-1.4,0.1l0,0l0,0l0,0l-0.2,0.1l0,0l0,0l0,0    l-1.5,0.1l0.4-2.1l-1.9-7.2l1.1-1.4L302.4,189.3z M530.3,301.8l1.4-1.1l2.7-3.9l0.5,0l1.1-0.9l-2,0.8l-2.3,3.1l-1.4,0.9    L530.3,301.8z M492.9,309.6l2.9,1.3l-0.6,1.4l-3.9-1l-3.4-0.1l2.7-1.1l0.3,0.9L492.9,309.6z M317.5,253.5l-0.4-1.6l1.8,1.2    l-1.3,1.7l-0.2,2.5l-0.6-0.5L317.5,253.5z M489.3,265.4l1.1,0l2.1,2.8l-5.4-1.2L489.3,265.4z M316.7,246l0.4-1.3l1.6,1.7l-1.1,4.3    l-1.1,0.8l1.2-3.9l-1.8,2.4L316.7,246z M312.6,241.8l0.6-0.9l1.5,2.3l-0.2,1.3l-1.5-3.1L312.6,241.8z M314.3,236.5l-0.3,2.1l1,0.1    l1.7,5.5l-1.1,2l-0.6-3.4l-1.6-2.9L314.3,236.5z M523,209.4l1.1,0.5l-0.1,1.3l-1.4,0.5L523,209.4z M529.5,199l1.2,0.2l0.3,2.3    l-2.5-1L529.5,199z M486.2,206.8l0.9,2.5l-0.8,2.8l-1.6-1l-0.5-2.3l0.8-2L486.2,206.8L486.2,206.8z M510.7,197.7l2.3,1.1l-1.6,0.8    l-1.9-1.7L510.7,197.7z M477.7,204.2l0.8,1.5l-3,4.2l-1.6,0.4l-1-2.3l1.4-3.1l0.6,0.5L477.7,204.2z M487.9,198.9l2.1-0.1l0.6,1.6    l-1,0.9l-2.1-1.6L487.9,198.9z M491.2,197l2,0.9l-1.2,0.6l-1.5-1L491.2,197z M466.5,184.9l1.7,2.6l-0.3,0.5l-1.3-1.3L466.5,184.9z     M470.9,185.8l-1.6,0.5l0-1l-1.2-1.4L470.9,185.8z M492.4,165.9l2.4,0.1l0.3,1.3l-2.5,0.5l-1.4-1.5L492.4,165.9z M461.7,172.3    l-0.4,1.5l-1.3-2.3l0.6-1.7l0.8,0.5L461.7,172.3z M490,162.9l0.5,1.6l-1.8-1l0.1-1.6L490,162.9z M426.4,166.2l-0.5,1.4l-0.6-0.5    l0-1.4L426.4,166.2z M483.5,158.2l1.1,0l-1.1,2l-0.5-1.8L483.5,158.2z M475.9,159.8l-1.8-2.3l2.5-1l1,0.6l-1.3,1L475.9,159.8z     M433.7,128.4l-1.1,1.5l-1.7,0.5l-1.1-0.9l1.5-0.9L433.7,128.4z M422,118.2l0.2,0.9l-1.4,1.1l-1.3-1l0.6-1.7l1.1-0.5L422,118.2z     M436.7,116.2l0.8,0.8l-1.8,1.6l-0.3-1.2L436.7,116.2z M425.6,113.1l-1.4,1.7l-1.2-0.1l0.6-1.2L425.6,113.1z M425.2,112.4    l-0.1,0.4l-2.7,0.8l-0.5-0.4L425.2,112.4z M396.5,106.9l0.3,0.4l-1.6,2.5l-1.7,1.4l-1.3-1.1l2.1-2L396.5,106.9z M424.8,110.7    l-0.5,1.6l-2.9-0.2l0.2-1.1l3.1-0.5L424.8,110.7z M422.6,107.6l1.5,1.4l-0.5,1l-1.9-0.1l-0.3-2.3L422.6,107.6z M449,108.9    l-0.6,0.2l-1.1-1.7l1.1-1.1L449,108.9z M405,102.6l-0.1,1.5l-2.1-1l1-0.8L405,102.6z M447.4,99.8l1.2,1.4l-0.5,2.1l-2.1-1.6l0-1.7    L447.4,99.8z M421.2,100.9l1,1l-0.8,1.6l-1.2-1.7l-0.5-3.8l1,0.2L421.2,100.9z M428.7,98.9l-1.5,0.4l-1.1-0.5l0.1-1.3l1.3,0.1    L428.7,98.9z M406,93.2l0.9,1.9l-1.1,0.6l-1.2-2.5L406,93.2z M432.3,78.4l1.1,1.4l-0.2,2.6l-1.1-2l-0.8,0.2l-0.1-1.4L432.3,78.4z     M491.6,242.3l0.8,0l0.5,3.4l1-2.3l1.5,0.4l0.5,1.6l-1.5-0.8l-0.9,3.2l-0.6-1.4l-0.6-3.9L491.6,242.3z M525.5,186.2l0,0.2l1.5,0.4    l0.9,2.5l-2-2l-0.2,0.8l2.8,3.5l-2,0.2l2.1,2.3l0.1,0.9l-1.7-1.9l-4.9-0.3l-4.2-2.6l1,1.5l-3.8-1.4l-0.6,0.4l3.2,2.5l2.3,0.5    l4.6,2.6l2.4,3.1l-0.9,0.5l-3.7-0.6l-3.8,0.5l-3.8-1.6l0.4-0.8l-2.5,0.8l-4.9-1.4l-0.4-1.6l1-1.3l-1.1-0.8l-1.2,0.6l-1.1-1.7    l-1.1,1l-1.2-1.7l-2.3-1.9l-1.8-0.9l-1.2,2.7l-3.4-0.8l-0.6,2.4l-3.3,1.1l-1.5-0.5l-1.4-1.6l-0.2-2l1.9-2.1l-0.8-1.6l2.1-0.1    l2.8,0.8l1.7,3l-0.3-1.9l-2.1-1.7l2.1-0.1l0.1-1l1.4,0.1l1.2-1.7l1.7,0.1l-1-1.6l-2.9-2.3l2.8-5.2l0-1.9l1.1-0.9l-1.9-4.3    l-1.1-0.8l-0.6-1.9l-2.7-0.5l-1.2,0.2l-1.5-3l-2.1-0.5l0,1.1l-2.1,2l-0.5-2.4l2.4-1.1l-0.5-1.3l-4.3-1.7l0.5-1.3l-1.9,0.2    l-0.5-2.5l-1.7,0.1l-2.1-1.9l-1,1.3l1.5,0.2l1.2,2l-0.3,1l-1.8,0.8l-0.8-0.9l-4.6-0.2l1.5,0.6l1,1.9l-1.9-1.6l-1.2,1.3l-2.4-1.1    l-1.5,0.8l-5.3-0.4l0.1,0.8l-1.9-1.4l0.2,1.7l-2.1-0.6l1.8-0.2l-0.1-1.7l-1,0.5l-2.4,0l-2-1l-2-3.1l-0.3-1.3l2.1,0.1l0.8,0.6    l2.5-0.5l-2-1.3l-4.1-0.5l-0.5-0.9l0.3-2.3l-0.8-1.1l1.1-1.9l-0.9-0.5l0.5-4.1l0.6,0.2l-0.2-2.3l0.4-1.6l2.5-3.8l2.1-1.3l3.4-0.1    l0.4,1.1l-1.9,3.1l-1.1,3.8l1.3,3.1l-0.3,1.4l1.1,2.9l1.7,1.9l1.3,0.5l0.4,1.1l-2.5,1.1l2.6-0.2l0.5-2.4l-0.6-1.5l-1.2,0.2    l-1.9-2.5l1.1-0.5l-0.1-1.3l1-0.1l2.1,1.4l-3.4-2.9l-0.5-1.2l0-2.7l3,1l-2.3-1.3l-0.2-1.6l1-1.4l3.5-3.1l2.7-0.3l0.9,1.3l0.5,2.1    l1.1,0.4l0.3,1.7l1.1,1.3l-0.1,2.7l-0.8,1.5l1.1-0.1l1.1-2.6l0.6,1.1l1.5,0.2l-0.2,2.3l1.2,0.2l-0.8-2.3l0.4-2.8l1.6-1.7l1.5-0.2    l0.6,0.6l3.3,0.2l1,2.6l1.9-0.1l0.4,1.8l-1.6,1.3l1.1,0.1l2.1-1.4L487,142l1.9,0.4l0.2-1.6l0.4-0.9l2.8,0.2l1.5,1.4l-0.4,2.9    l0.6-0.1l0.8-2l1,1.1l-0.5,2.4l1.9-2.5l0.3,2l0.6-1.5l3.2,0.4l0.1,1.6l-1.9,1.6l-1.1,2.6l1.1-0.5l-0.1-1.3l2.4-0.8l-1.2,2.9    l2.3-3.1l-0.1-1.5l2.7,1.9l0.8,1.4l-1.6,0.1l0.1,2.4l0.9-1.4l2.3,1.3l0.6,0.9l-2.4,0.9l-1.5-0.4l-2,0.3l3.8,1.1l-0.5,0.8l1.1,1.1    l-3.3,0.8l2.9,0.1l-0.5,0.8l4,0l1.5,2.4l0.5-1.9l0.5,2l0.5-0.8l3.1-0.8l-0.5,1.3l1.9-0.2l2,1.1l0.2,1.6l-1.9,1.3l2.1-0.5l0.5-1.4    l1.8,0.2l-0.1,2.6l1.1-1.6l1.8,1.6l-0.8-2.1l1.3,0.1l2.1,1.3l0.4,2l-2.3,2l2,0.8l-1.1,0.8l0.6,2l-1.7,1l-0.8,1.5l1.5,1.3l0.2,2.3    l-1.4-1.4l-1.8,1.3l-3.8-2.9l-0.5-1.9l-1.2,0.5l-0.5-0.9l-3.3-1.9l-1.3,0.4l1.2,1.3l-2.3-0.3l0.8,1.3l2.1,1.6l-1.9,0.9l-0.5-1.1    l-1.6-0.3l1.6,2.4l1.2,0.6l0.9-0.8l0.5,1.4l1.1-0.2l1.1,2.3l4.4,0.9l0.2,1.2l1.6-0.1l-0.6,1.6l3.2,1.3L525.5,186.2l1.6-0.3    l1.3,2.7l-1.6-2.1L525.5,186.2z M557.1,269.3l0.8-1.3l3-0.4l6.6,0.5l1.2,1.3l-1.9,1l-5.7,0.1l-1.8-1.1L557.1,269.3z M486,166.2    l2.7-1.1l1.3,0.2l1.3,4.6l-1.6,2.6l-2.8,0.8l-1.6-2.9L486,166.2z M478.3,162.8l1.6-3.5l-0.2-0.8l-0.8,0l1.4-2l0.6,0.6l-1.2,1.4    l1.1,1.1l-1.1,3.1l0.4,1.6l1.1,0.2l-0.9,2l-0.8-3.8L478.3,162.8L478.3,162.8z M419.1,131.4l-0.4,1.9l-1.8,3.2l-2.1-4.5l-1.1-0.6    l1.1-1.6l3,0L419.1,131.4z M437,99.5l1.5-0.6l3.2,0l0.6,0.4l-0.4,2.3l-4.4-0.1L437,99.5z M573.6,284.7l-1.2,1.7l0,1.9l-1.6-0.4    l-3.1,0.6l-2.4-0.2l-1.7-1.2l0.8-2.8l0.2,1.7l2.3,1.3l1.9-0.4L573.6,284.7z M326.9,276.9l1.4,1.9l-0.3,2.1l-1.2,0.3l-3.8-3    l-1.5-1.9l1.7-0.9l-2.5-0.2l-3.4-5.9l-1.2-4.1l-1-0.9l-1.3-3.9l2,0l2.1,2.7l2.3,1.7l4.5,2.3l-1,2.7l1.1,3.8l2.6,2.3L326.9,276.9z     M588.9,254.7l-1.4,2.3l1.2,0.5l2.6-0.4l0.4,1.1l1.4-1.2l0.5-2.1l0.6,1.4l1-1.7l2.7,0.2l-0.9,2.3l1.1,2.3l1.5-0.2l1.7-1.6l-1,3    l0.4,3.4l1.5,0.3l-0.3-3.1l1.1-1.2l0.1,3.2l0.8,1l0.4-2.7l1.4,1.1l1,4.6l-1.7,2l-1.6-3l-0.8,2.9l-0.8-0.2l-0.3-3.3l-2.4-2l0.1,2.5    l-1.2,1.3l-0.1,3.4l-2.6,1.4l1.1-2.3l0.1-3.1l-1.2-0.4l0.4,1.6l-3.1,0.4l-2.3,1.8l-4.8,1.2l-3.7,2.6l-1.8-1.3l2.1-5l-3.1,1.6    l1.8-1.7l-0.3-3.4l1.6,0.3l-1.6-2.4l0.2-1.8l-0.2-6.6l0.8-1.9l-0.3-2.6l2.3-3.2l1.1-0.4l-0.5-1.7l1,1.9l0,1.7l-1.6,0.2l1.8,1.3    l-0.7,7.5l0.9,2.8l0.9-4.6L588.9,254.7L588.9,254.7z M475.4,197.8l-1.5,0.4l-0.1-1.6l-1.7,1.4l0.3,1.6l-1.7,1.3l-0.5,2.1l-1.8,1.6    l-1.2-0.8l-0.1-2.4l-0.6-0.5l-3.9,1.3l0.5-2.4l1.9-1.4l-1.1-3.2l0.5-2.4l-0.3-2.4l0.2-3.2l1.1-1.3l1.5,1.9l-0.6,0.6l1.6,2l0.5-2    l1.6,1.7l2,0.2l0.8,1.2l2.6,0.9l1.9,1.4l1,1.8l-1.1,1.6l1.7-0.8l2.6,0.3l1.1,0.9l-2,2.8l-3.3-1.1l-1.2,0.2L475.4,197.8z     M437.4,167.9l-1.8,1.9l-2.4-0.6l-2.7-1.6l-1.1-1.4l-0.5,0.9l-1-1.4l3-2l-0.5-0.9l1.1-2.6l1.8-0.8l1.4,2.9l0.4-0.5l2.8-0.3    l0.5,1.7l-2.2,0l1.2,3.5l1.6,0.2L437.4,167.9z M416.7,149.6l1.4,2.8l1.8,1.9l0.6,0l2.9,3.1l1.4-0.2l0.1,2.6l-1.1,1.5l-0.3-2.3    l-0.5,1.7l-1.1-1.4l-1.7,2l-1.5-1.4l-0.2,0.5l1.5,1.8l1.9-0.5l-0.3,1l1,1.4l-0.6,2.4l0.1,1.7l-1.2-0.9l1.1-1.9l-3.8,1l-2.5-1.3    l-2-0.3l1-0.5l-3.7-1.4l-0.1-2.3l-2.3,3.1l-3.1,0.1l-1.2,1.3l-1.8,0.4l-4.4-0.4l-3.7,0.2l-1.3-1.2l-0.5-1.6l0.5-2.8l-1.6-1.1    l-2-0.1l-1.8-0.9l-1.3-1.6l0.2-0.8l-1.2-1.7l0-1.7l1.4-0.6l2.4-0.2l4.5,0.4l3.5,1.6l2.4-0.4l-0.9-1.5l-2.9-1.9l-1.6-0.2l-6.3-0.2    l-1-0.8l-1.9-2.3l-0.1-1.4l5.8-1.3l1-1.1l-4.2,0.2l-1.5-1.1l1.6-0.3l-0.8-1l-2.1-0.3l0.5-2.1l1.2-1.3l1.4-0.3l-0.6-1.6l3.5-2.9    l6.7-1.9l1,2.3l-0.6,2.4l-1.6,1.2l1.9,0.3l1.2-2l1-0.5l3.4,2.9l-0.3,1.1l-1.5,1.2l0.3,0.8l1.4-0.6l2.4-2l-0.8-2.3l1.3,0.3l2.7,3.8    l-0.2,1.5l0.5,3.2l-0.3,1.1l1.1,1.4l1.3-1.8l-1-1.9l-0.1-2.9l0.3-5.2l0.6-2.6l-0.1,1.4l1.6,1.4l0.8-0.8l1.9,2.6l0.9,1.7l0.2,5.2    l1.1,3.9l0,1.7L416.7,149.6z M473.9,135.3l-1.8-0.3l-1-2.8l-1.3-0.1l-0.6-3.3l0.6-0.5l2.3,0.6l2.7-0.8l0.6,0.3l1.5,0.4l2.7,2.6    l0.3,2l-4.1,0.2L473.9,135.3z M430.6,149.4l-1.2-0.5l-1.3-3.9l-1.6-2.6l-1.3-1.2l-1.4,0l-0.2-1.3l-1.3-1.3l-0.2-1.2l0.8-1.6l1-0.2    l1.4,2.8l1.9-0.1l1-1.6l-1.1-1.4l0.6-1.3l-1.1,0.4l-1.6-1.9l1.6-0.8l0.1-1.7l1.8,0.5l0.5-1.3l1.2,1.6l4.2-0.9l0.5,1.9l-1,0.6    l0.5,1.1l-1.2,0.6l-1.4,1.9l2.4,0.6l0.5,1.4l0.5-1.2l-0.8-1.1l0.8-0.9l0.1,2.3l1,3.5l-0.5,1.2l0,3.1l-2.1,1.6l-1.7-0.4l0.4,1.1    L430.6,149.4z M379,116.1l4.4,0.5l2.3-0.1l2.1,2.9l1.8,1.1l0,1.6l1-1.4l1.4-0.1l2,2l2.1,5.4l-2.7,1.1l-6.9,3l-1,1.9l-2.1,0.2    l-1.4,3.8l-1,1.3l-1.9,0.3l-0.4-0.8l-1.4,1.1l-2.5,0.6l-0.8-5l-1.9-2.7l-1.4-0.5l2.6-3.2l1-0.3l0.5-2.4l1.3,0.1l-0.5-1.4l1.6-2    l2.1-2l-0.5-0.9l0-4.2L379,116.1L379,116.1z M437.3,124.6l0.8-1.8l-0.8-0.1l-1.1-2.9l1.3-2.5l1.7-1.1l0.2-1.1l0.5-1.7l0.4,1.8    l-0.6,0.2l2.4,3.8l0.3,2.9l-0.3,1.8l-2.3,0.2l-1.2-1.3l-0.1,2.4L437.3,124.6z M434.4,112.1l-0.2,2.3l-0.8,1l1.1,0.5l-1.6,2.7    l1.2,1.5l-1,0.9l-3.3,0.3l-1.3-0.3l-0.6-3.4l1.4-0.1l0.5-1.6l-3.2,0.2l-2.4,0.6l0-1.4l1.8-1.6l0.9,1.1l-0.9-2.6l1.1-1.3l-1.4,0.1    l0.6-1.9l1.3,1.1l-0.1,0.9l2.4,2.4l-1.1-2.3l0.9-0.6l-1.7-1.6l0.5-1.1l-1.7,0.3l1.4-1.1l1.3,0l2,2.4l0.5-1.4l2.3,1.3L434.4,112.1z     M401.1,121.6l-1.1-2l3.8-1.7l2.5,0.2l1.5-1.6l-2.9,0.5l-3.2-0.3l0.8-1.9l-0.5-0.3l-1.2,2.1l-1.2,0.5l-0.2-1.7l-1.3,1.4l-3-2.7    l1.1-1.9l2.3,0.5l2.3-1.3l-2.3,0.5l-2-0.4l1.1-1.5l3.9,0.2l-3.3-1.1l0.3-1.3l2-1l0.9-1.6l2.5,0.4l0,2.4l1.9-0.3l0.9,1.1l0,1.1    l1,0.9l-1,0.6l1.4,0.2l0,2.6l1.5-0.2l3,1.2l-0.1-2.1l-1.6-1.4l1.6-1.4l-1.7-1.9l0.2-1.1l1.1-0.3l0.9-1.7l1.5-1l-0.2,1.7l0.9,3    l-1.1,1.9l1.2,0l-0.2,1.3l1.6,0.4l1.1-1.3l1.5,0.8l0.4,2.7l-1.7,4.6l-3.1,0.4l-0.2-0.9l-1.6,0.9l-1-0.9l-3.7,1.6l-2.5,1.3    l-2.9,0.3L401.1,121.6z M456,117l2.5-2l1,0.1l1.4-1.8l1.3,0.5l1.3-1.1l2.4,0.1l-0.1,0.9l1.5-0.2l1.9,1.2l0.4,2.3l-1.4,1.4l1.7-0.1    l0.5,1.1l-1.5,1.2l0.4,1.1l-2.3,0.9l-0.9,1l-2.4-0.3l-0.8-2l-0.4,2l-1.5,0.8l-4.7,0.9l-3.9,0.2l-0.3-3.1l-0.5,1.9l-2.1,1.3    l-2.3-1.3l0.4-1.5l-1.4,2l-1.1-1l-0.3-2.8l-0.8-0.5l0.2-2.4l0.5-0.8l-0.4-2.4l-1.9-3.8l-1.7,1l-3.3-1.1l-1.2-2.4l0.3-1l-0.9-1.5    l1.8-0.6l3.9,1.2l1.2,2.4l0.8,0.2l2.3-1l1.7,1l0.3,1.2l2.1,0.8l0,1l-3.3,0.1l0.5,1.1l1.5,0.9l0.3-0.5l1.6,1.6l0.8,2.8l0.5-1.8    l0.9,1.4l1.6-1.3L456,117z M394,98.8l3-2.3l1.7,0.2l0.9,1.1l1.2-0.5l-0.8-0.8l1.5-0.5l1.3,2.5l-2,1.1l0.8,1.6l-0.8,2l-2.5,0.9    l0,1.4l-1,0.5l-1-1.4l1.3-2.9l-1.5,0.2l0,1.3l-1.4,0.2l0.4,1.4l-1.7,1.5l0.1-2l-0.6,0.6l-0.1,1.8l-1.1,1.3l-1.2-0.2l0.1-2.9    l-0.8,1.9l-1.4-1.3l-1.3,0.5l0-2.5l1.2-1.1l1.6,0.2l1.4-1.6l1.6-0.8L394,98.8z M412.3,93.7l1.7,0.3l-0.1,1.1l-2.1,0.5l1.1,1    l-0.5,2.3l-2.1,0.5l-1.3,0.4l-1.6-2l0.5-3.1l1.8-0.5L412.3,93.7z M413.2,92.4l-1.2-1.2l-0.6,1l-1.1-1.1l-1.8,0.5l0.2-1.1l3.9-1.7    l1.3-0.4l1.3,1.8l-0.2,2.4l-1.7,0L413.2,92.4L413.2,92.4z M434.3,96.6l1.6-0.8l-1.6-0.8l-1-2.3l0.5-2.8l1.2,0.2l2.1,1.5l-0.1,0.8    l1,0.1l1.5,1.4l-1,1l0.9,1.3l-0.3,1.1l-2.9,0.9L434.3,96.6z M424.3,87.8l-1.6,1.3l0.8-1.6l-1.4-0.2l0.5-2.7l2.7,0l1.2,1.2l0.5,2    l1.3-0.5l1.1,1.4l-0.4,1l1.4,0l1.3,2l-0.5,1.4l1.3,3.1l0,1.6l-1.6,0.9l-1.1-0.8l-0.6-2.9l-1.7-0.8l-1.1,0.3l0.2-1.3l-3,0.6l-0.9-2    l0.8-0.5l1.8,0.8l0.2-2.4l-1.2-0.1L424.3,87.8z M441.5,68.5l-1.6-0.4l0.2-1l1.3-0.1l2,1.9l1.9,5.4l2.1,0.1l0.6,3.1l1.4,0.8l-1-1.7    l0.2-1.4l1.2,0.1l0.3,2l-0.4,1.1l1.1-0.1l0.5,1.4l0,3.1l0.8-0.8l1.7,0.4l1.3,2.3l-0.8,1.3l-1.5,1.1l-1.3,3.5l-0.5-0.1l-1.6,4.5    l-1.8-3.5l0.1,1.5l1.1,2.3l-1.3-1.3l-0.2,1.6l-2.8-0.4l-1.1-1.1l-0.5-1.4l1.9-0.5l-1.8-0.5l-0.6,0.4l-1.8-3.2l1.6-1.7l2.1-0.1    l2.4-0.8l-2.7,0.4l-0.9-1l1.2-0.3l-1.3-0.9l-2,1.7l0.1-1.3l-1.1,0.4l-1.9-0.4l0.2-1.4l1.4-0.4l0.6-1.3l-1.4,1.1l-1.1-0.1l-1.2-2    l-0.1-2.4l1.1,0.6l1.8,0.2l1.1-1.3l-0.8-0.3l-1.2,0.9l-1.8-1.4l1-1.1l-0.2-0.9l0.6-1.5l0.6-0.4l1,0.9l0-1l-1.4-0.8l0.9-2.4    l2.4-0.3L441.5,68.5z M469.8,91.9l2.4,0.2l-1.8,2.1l-2.3,0l1.4,2.8l-0.5,2l-1.3,1l-3,0.2l-1.6-1.3l1,1.5l-1.1,0.4l0.3,1.1l1.1-1.3    l2,0.4l1-0.5l1,1l-0.6,1.6l1.7-1.1l0.9,0.2l0.8,2.4l-1,1.9l-0.6-0.9l-0.5,2l0.8,2.8l0.6,0.9l-1.6,0.2l0.5-1.5l-0.4-2.1l-3.1,2    l0.1-2.4l-2.1-0.2l-0.5,0.9l-2.7,0.1l-1.1-1.4l0.1,1.4l-1.3,0.4l1.1,0.8l-3.9-0.3l-0.5,0.5l-1.4-0.8l-0.3,1l-1.5-0.3l-0.5-3.4    l-0.4,3.3l-1.6-1.2l0.1-2.4l2.1-2.5l1.3,0.2l1.1-1.4l-1.5-0.6l0-1.1l-1.1-1.3l-0.1-1.3l1.6-1.1l1.7,0.8l1.1,2.4l2.6,1.4l-0.3-0.6    l2,0l-0.1-1.3l1.1-4.1l-0.5-0.4l-0.5,3.5l-0.8,1.1l-2.6-0.5l0-1.8l-1-1.1l0.9-1.1l0.2-2.4l-1.1,2l-1.2,0.6l-2.3-0.3l-0.2-2.8    l1.1-3.2l2.1-1.3l2.6,0.4l1.7,1.1l-0.9-1.3l2.4-0.5l0.2-1.6l-1.5,1.7l-2.9-0.1l-0.9-0.6l0.5-1.4l-0.5-1.9l-1.1-1.7l-2.5-1.1    l0.1-1.8l-0.6-1.5l0.1-1.6l4,0.1l2.9,3l1.2,2.3l1.6-0.4l-1.5-0.8l-0.5-1.6l-2.9-3.2l4-2l0.3-0.5l2.8-1.2l-2.8,0.4l1.8-1.9l2.7-1.2    l-0.1-0.5l-2,0.4l-1.1,0.8l-0.3-1.4l1.2-3.2l-0.8,0.3l-1.1,3.1l-0.1,1.6l-1.9,2.3l-2.4,1.2l-0.3-1l1.2-0.9l0.1-1.1l-1.7,1.5    l-0.6-0.3l0.1,1.7l-0.9,0.5l-2.6,0.1l-1-0.5l1.1-3.2l0.8-0.8l3.3-1.6l0.4-0.5l-4.1,1.7l-1,0.8l-1.4,3.4l-1.2-0.3l-2-1.6l1.3-1.3    l2.4-0.3l2.5-2.9l-0.8-0.1l-1.6,1.7l-4.6,1.5l-0.9-1.4l1.3-0.9l-0.9-0.8l1.9-2.4l-2.8,2.3l-0.5-0.9l1.5-1.7l-1.5-0.3l-1,1.4    l-0.8-0.9l1.2-2l1.6-0.9l0.5,0.9l0.8-2.3l0.9-0.5l3.1,0.8l1.3-0.2l-2.8-1.1l-0.2-0.9l1.8-0.9l-0.6-1.6l2.8,0.8l1.7,2.3l-0.8-1.9    l4.3,2.6l1.3,1.2l-1.2-1.7l-1.5-0.5l-2.7-2.3l0-1.3l1.3-0.1l-1.1-0.8l0.1-0.9l2,0.8l-1.6-2l1.5-0.2l1.6,0.9l0.8-0.3l-1.8-0.4    l-0.5-1.6l0.9-0.5l0.6,0.9l1.3-0.9l1,0.4l1.1,1.7l1,0.5l-1.6-2.5l-1.1-1l1.3-0.9l2.4-0.1l0.8,1.2l1.8,1.1l-1.8-1.8l0.4-1.6    l3.7-1.5l0.4,1.2l1.6-0.6l2.1-0.1l0.2,0.4l-1.8,3.4l1.3-0.8l1.3-2.4l0.6,0.4l0.4-1.5l0.8,1.3l1-1.1l0.1,1.1l1.6,1.4l1.6-0.3l1,0.8    l0.5,1.7l-0.5,2L479,56l-1.4,0.1l0.2,0.8l-3.3,2.3l1.2-0.4l1.1,0.4l-3.5,4.5l0.8-0.4l4.1-4.4l1.3-1.1l0.3,1.5l-1.2,2l-0.5,1.9    l-1.4,3.2l-0.5,3.7l-1.4,0.9l1,0.5l-2.7,2.7l2-1.4l0.3,1.3l-0.5,2.5l-1,1l-1.6-0.9l-1.9-0.2l-0.9,0.5l2.4,0.1l0.9,1.9l-1.1,1.1    l-1.6,0.1l0.3,1l-2-0.5l0.8,1.1l-1.5,0.2l-1.1-0.6l0.5,1.6l4.5-0.8l0.3,1.6l-2.4-0.1l-0.5-0.8l-3.1,1l3.2-0.2l-2,1.3l-0.6-0.1    l-0.1,2.3l0.6-1.6l1.5-0.9l1.6,0.1l-0.4,1.6l1.7-0.5l1.3,1.1l0.1,1.3l-0.9,0.9l-1.8,0l2.7,0.9l-0.5,1.7L469.8,91.9z">
	</path>
	<path class="country disabled"
		d="M514.4,454.6l1.1,2l-3,1.3l-0.3-2.3L514.4,454.6z M544.3,449.7l5.7,2.3l4,0.8l1-0.6l3.3,2.3l3.4-0.5l2,1.3    l1.6-0.2l0.1,1.6l-3.9,1.9l-3.7,1.1l-3.9,0.2l-8.5,2.8l3-4.7l-1.6-1.3l-4.4,1l-1.1-0.6l-1.2,1.7v-2.3l-3-3.9l-2.7,1.1l-3.9-0.2    l-3.7-1.7l-3.1,0.6H519l-1.9-1.3l2.5-0.6l-1.4-1.2l-5.2,0.8l-3.2,3.8l-2.9,0.5l-0.4,1.7l-2.7,1.2l1.1-1.7l-1-1l1.7-3.2l4.5-2.7    l3.8-0.9l1.9-1.3l5.4-0.5l2.5-0.9l2.6,1.3l1.1-1.4l2.3,0.5l1.6,1.7l2.6,1.4l2.6-0.6l5.5,1.3l1.6-0.5l-0.5,1.6l2.7,0.5L544.3,449.7    z">
	</path>
	<path class="country disabled"
		d="M549.2,470.8l3.3-0.3l3.5,0.9l1.3,1.3l-1.9,0.9l-2.1-0.4l-1.8,2.3l-3.2-0.2l-2.6-1.7l-1.8-0.1l2.5-2.1    L549.2,470.8z">
	</path>
	<path class="country disabled"
		d="M570.3,446.1l0.3,2.8l-2.8,1.3l1-2.4l1.4,0.1L570.3,446.1z M535.7,419.9l0.1,0.8l-3.9,1.7l0.3-1.6l3.1-0.5    l-0.2-1l2.5-0.4l2.9,1.6l0.1,3.9l-2.6-1.7l1.6-0.6l0.1-1.6l-2.3-1.3L535.7,419.9z M537.1,429.7L537.1,429.7l2.1,2.7l2.1,4.5    l-0.2,1.3l-3.9-3.4l-1.9-1.1L537.1,429.7L537.1,429.7z M537.1,429.7l0.4-3.4l0.2,1.7L537.1,429.7L537.1,429.7z">
	</path>
	<path class="country disabled"
		d="M581.8,462.5L581.8,462.5l-0.2-0.2L581.8,462.5z M581.1,461.9l0.5,0.6l0.3-0.1l1.5,0.8l0.1,1.8l-2.1-0.8    l-4.6,1.9l-4.7,0.4l-1,1.8l-4.3-1.6l1.6-1.9l8.7-0.9l2.1-2.3l-2.6-1.1l-0.8,1l-0.2-4.1l-4.4-0.1l1-2.3l2.9-0.8l2.3,0.5l3.3-0.8    l1.6,2.9l0.3,2.8L581.1,461.9z">
	</path>
	<path class="country disabled"
		d="M583.5,465l-0.1-1.8l-1.5-0.8l0,0l0,0l-0.2-0.2l-0.3-0.2l-0.2-0.1l1.4-1.6l-0.3-2.8l-1.6-2.9l0.2-1.3    l3.7-1.4l4.6,0.4l2.4-0.6l2.7,2.9l5.3-0.9l2.8,1.2v2l-1.4,1.9l-1.5-1.3l-5.7,1.4l-1.2,1.9l-2.1,0.9l-1.3-1.2l-1.6,2.5l-1.4,3.9    L583.5,465z">
	</path>
	<path class="country disabled"
		d="M619.3,452.3l0.5-0.1l0,0l-0.3,0.4L619.3,452.3L619.3,452.3L619.3,452.3z M619.3,452.3l-1,0.3l-2.1,2.5    l-5.4,1.7l-1.7-2.3l0.6-1.3l8.8-2.3L619.3,452.3L619.3,452.3L619.3,452.3z M619.9,452.2l1-1.2l0.2,0.9L619.9,452.2L619.9,452.2z">
	</path>
	<path id="us-fl" class="country disabled"
		d="M262.298,153.148l-0.367-0.019l-0.357-0.055l-0.344-0.089l-0.33-0.122l-0.314-0.152l-0.296-0.181l-0.276-0.208
    l-0.255-0.234l-0.232-0.258l-0.207-0.279l-0.18-0.299l-0.151-0.318l-0.121-0.334l-0.088-0.348l-0.055-0.362l-0.018-0.372
    l0.018-0.373l0.055-0.362l0.088-0.35l0.121-0.336l0.151-0.32l0.18-0.302l0.207-0.282l0.232-0.26l0.255-0.237l0.276-0.211
    l0.296-0.184l0.314-0.154l0.33-0.123l0.344-0.091l0.357-0.056l0.367-0.019l0.367,0.019l0.357,0.056l0.344,0.091l0.33,0.123
    l0.314,0.154l0.296,0.184l0.277,0.211l0.255,0.237l0.232,0.26l0.207,0.282l0.179,0.302l0.152,0.32l0.121,0.336l0.089,0.35
    l0.054,0.362l0.019,0.373l-0.019,0.372l-0.054,0.362l-0.089,0.348l-0.121,0.334l-0.152,0.318l-0.179,0.299l-0.207,0.279
    l-0.232,0.258l-0.255,0.234l-0.277,0.208l-0.296,0.181l-0.314,0.152l-0.33,0.122l-0.344,0.089l-0.357,0.055L262.298,153.148z"
		style="transform: translate(257px, 268px);stroke-width: 0.4rem;padding: 2rem;stroke-width: 6px;z-index: 99;">
	</path>

</svg>