<svg xmlns="http://www.w3.org/2000/svg" viewBox="0 0 168 27">
  <path d="M163.2 2.4c0-.7.7-1 1.9-1 1.1 0 1.9.3 1.9 1 0 .9-1.1 1-1.9 1-1.2.1-1.9-.2-1.9-1zm4.8 0c0-1.4-1.1-2.4-3-2.4-1.3 0-2.9.7-2.9 2.4s1.4 2.4 2.9 2.4c1.6.1 3-.7 3-2.4zm-4.8 6.7v-1c0-.6.4-.9.7-.9.4 0 .7.2.7.9v1h-1.4zm2.5 0v-1l2.3-.9V5.8l-2.5 1.1c-.2-.6-.8-1-1.5-1-1.1 0-1.7.7-1.7 2.1v2.5h5.7V9.1h-2.3zm-1.4 2.6c-1.4.1-2.2.9-2.2 2.3 0 1.7 1.4 2.6 2.9 2.6 1.6 0 2.9-.8 2.9-2.5 0-1.3-.8-2.2-2.1-2.3l-.1 1.3c.6.1 1.1.4 1.1 1 0 1-1 1.1-1.8 1.1-.7 0-1.9-.1-1.9-1 0-.7.6-.9 1.2-1v-1.5zm3.6 6.1h-5.7v1.3h5.7v-1.3zm0 5.8v.9l-4.7 1.4h4.7V27h-5.7v-2.1l3.4-1-3.4-1v-2.1h5.7v1.3h-4.7c.1.1 4.7 1.5 4.7 1.5zM50.1 27H28.4c-1.7-6.2-5.2-19.2-5.2-19.2h-.1V27h-8.9V.4h15.4c1.6 6.1 5 18.7 5 18.7h.1V.4h8.9v4c-2.2 2.3-3.5 5.2-3.5 8.8 0 5.3 3 11.8 10 13.8zM155.3.4V27H146V6.2h-.1L140.6 27H132l-5.3-20.8h-.1V27h-16.2l-1.6-5.7H100L98.4 27H82.9s-.5-3.9-.7-4.9c-.5-3.3-1.5-4.1-3.4-4.1h-2.7v9H60.2c4.6-1 8.7-3.1 11.1-4.5L67.9 9.9 59 12.2l1.9 7.1c-.6.4-2.4 1-3.7 1-4.2 0-6.2-4.2-6.2-7.8 0-5.8 6-8.1 11.3-8.1 1.2 0 2.8.1 3 .1L64.2.3h18.5C90.1.4 93 3.9 93 7.6c0 5.6-5.4 6.7-6.4 6.8v.2c2.2.4 3.7 1.4 4.7 3.2 0-.1 5.7-16 6.2-17.4h14.2l6 16.7h.1V.4h15.3s3.5 14.6 3.6 14.6c1.2-4.8 3.5-14.6 3.5-14.6h15.1zM0 .4h10.3V27H0V.4zm104.3 5.7l-2.9 8.8h5.9l-2.9-8.8h-.1zM76.1 12h3.1c2.5 0 3.5-1.3 3.5-2.9 0-2-1.7-2.8-3.5-2.8h-3.1V12" fill="#3f71c0"/>
</svg>